<svg xmlns="http://www.w3.org/2000/svg" width="390" height="844" viewBox="0 0 390 844" font-family="-apple-system, 'Segoe UI', Helvetica, Arial, sans-serif">
  <defs>
    <linearGradient id="p1" x1="0" y1="0" x2="1" y2="1"><stop offset="0" stop-color="#46306b"/><stop offset="1" stop-color="#191228"/></linearGradient>
    <linearGradient id="p2" x1="0" y1="0" x2="1" y2="1"><stop offset="0" stop-color="#6b3030"/><stop offset="1" stop-color="#281212"/></linearGradient>
    <linearGradient id="p3" x1="0" y1="0" x2="1" y2="1"><stop offset="0" stop-color="#2f5c46"/><stop offset="1" stop-color="#12281b"/></linearGradient>
    <linearGradient id="p4" x1="0" y1="0" x2="1" y2="1"><stop offset="0" stop-color="#30496b"/><stop offset="1" stop-color="#121d28"/></linearGradient>
  </defs>
  <rect width="390" height="844" rx="48" fill="#0B0B10"/>
  <rect x="0.5" y="0.5" width="389" height="843" rx="47.5" fill="none" stroke="#272733"/>
  <rect x="135" y="16" width="120" height="30" rx="15" fill="#000"/>
  <text x="24" y="92" fill="#F4F4F8" font-size="28" font-weight="800">Discover</text>

  <!-- search -->
  <rect x="24" y="112" width="342" height="50" rx="12" fill="#15151D" stroke="#272733"/>
  <text x="44" y="143" fill="#62626F" font-size="15">🔍  Search movies…</text>

  <!-- rail 1 -->
  <text x="24" y="206" fill="#F4F4F8" font-size="17" font-weight="700">Trending this week</text>
  <rect x="24" y="222" width="124" height="186" rx="12" fill="url(#p1)"/>
  <rect x="160" y="222" width="124" height="186" rx="12" fill="url(#p2)"/>
  <rect x="296" y="222" width="124" height="186" rx="12" fill="url(#p3)"/>
  <text x="24" y="430" fill="#F4F4F8" font-size="13" font-weight="600">The Substance</text>
  <text x="24" y="448" fill="#F6C453" font-size="12" font-weight="700">★ 7.9</text>
  <text x="148" y="448" fill="#9B9BAC" font-size="12" text-anchor="end">2024</text>
  <text x="160" y="430" fill="#F4F4F8" font-size="13" font-weight="600">Oppenheimer</text>
  <text x="160" y="448" fill="#F6C453" font-size="12" font-weight="700">★ 8.1</text>
  <text x="284" y="448" fill="#9B9BAC" font-size="12" text-anchor="end">2023</text>
  <text x="296" y="430" fill="#F4F4F8" font-size="13" font-weight="600">Parasite</text>
  <text x="296" y="448" fill="#F6C453" font-size="12" font-weight="700">★ 8.5</text>

  <!-- rail 2 -->
  <text x="24" y="500" fill="#F4F4F8" font-size="17" font-weight="700">In cinemas now</text>
  <rect x="24" y="516" width="124" height="186" rx="12" fill="url(#p4)"/>
  <rect x="160" y="516" width="124" height="186" rx="12" fill="url(#p3)"/>
  <rect x="296" y="516" width="124" height="186" rx="12" fill="url(#p1)"/>
  <text x="24" y="724" fill="#F4F4F8" font-size="13" font-weight="600">Furiosa</text>
  <text x="24" y="742" fill="#F6C453" font-size="12" font-weight="700">★ 7.6</text>
  <text x="160" y="724" fill="#F4F4F8" font-size="13" font-weight="600">Challengers</text>
  <text x="160" y="742" fill="#F6C453" font-size="12" font-weight="700">★ 7.2</text>
  <text x="296" y="724" fill="#F4F4F8" font-size="13" font-weight="600">Civil War</text>
  <text x="296" y="742" fill="#F6C453" font-size="12" font-weight="700">★ 7.0</text>

  <!-- tab bar -->
  <rect x="0" y="764" width="390" height="80" fill="#0B0B10"/>
  <line x1="0" y1="764" x2="390" y2="764" stroke="#272733"/>
  <text x="39" y="794" font-size="19" text-anchor="middle" opacity="0.35">🎬</text>
  <text x="39" y="812" fill="#62626F" font-size="10" text-anchor="middle">Feed</text>
  <text x="117" y="794" fill="#F6C453" font-size="19" text-anchor="middle">🧭</text>
  <text x="117" y="812" fill="#F6C453" font-size="10" font-weight="700" text-anchor="middle">Discover</text>
  <text x="195" y="794" font-size="19" text-anchor="middle" opacity="0.35">👥</text>
  <text x="195" y="812" fill="#62626F" font-size="10" text-anchor="middle">Crews</text>
  <text x="273" y="794" font-size="19" text-anchor="middle" opacity="0.35">🎟️</text>
  <text x="273" y="812" fill="#62626F" font-size="10" text-anchor="middle">Screenings</text>
  <text x="351" y="794" font-size="19" text-anchor="middle" opacity="0.35">👤</text>
  <text x="351" y="812" fill="#62626F" font-size="10" text-anchor="middle">Profile</text>
</svg>
