<svg xmlns="http://www.w3.org/2000/svg" width="390" height="844" viewBox="0 0 390 844" font-family="-apple-system, 'Segoe UI', Helvetica, Arial, sans-serif">
  <rect width="390" height="844" rx="48" fill="#0B0B10"/>
  <rect x="0.5" y="0.5" width="389" height="843" rx="47.5" fill="none" stroke="#272733"/>
  <rect x="135" y="16" width="120" height="30" rx="15" fill="#000"/>
  <text x="24" y="92" fill="#F4F4F8" font-size="28" font-weight="800">Crews</text>

  <!-- crew cards -->
  <g>
    <rect x="16" y="116" width="358" height="92" rx="18" fill="#15151D" stroke="#272733"/>
    <rect x="32" y="136" width="52" height="52" rx="12" fill="#1D1D28"/>
    <text x="58" y="170" font-size="26" text-anchor="middle">👻</text>
    <text x="100" y="152" fill="#F4F4F8" font-size="16" font-weight="700">Midnight Horror Club</text>
    <text x="100" y="171" fill="#9B9BAC" font-size="12">23 members · Hyderabad</text>
    <text x="100" y="189" fill="#62626F" font-size="12">We watch what others won't…</text>
    <text x="352" y="168" fill="#5BD9A4" font-size="20" text-anchor="middle">✓</text>
  </g>
  <g>
    <rect x="16" y="220" width="358" height="92" rx="18" fill="#15151D" stroke="#272733"/>
    <rect x="32" y="240" width="52" height="52" rx="12" fill="#1D1D28"/>
    <text x="58" y="274" font-size="26" text-anchor="middle">🎞️</text>
    <text x="100" y="256" fill="#F4F4F8" font-size="16" font-weight="700">35mm Purists</text>
    <text x="100" y="275" fill="#9B9BAC" font-size="12">41 members · Hyderabad</text>
    <text x="100" y="293" fill="#62626F" font-size="12">Celluloid or nothing. Repertory hunts.</text>
    <rect x="312" y="252" width="50" height="28" rx="14" fill="#F6C453"/>
    <text x="337" y="271" fill="#1A1404" font-size="12" font-weight="800" text-anchor="middle">Join</text>
  </g>
  <g>
    <rect x="16" y="324" width="358" height="92" rx="18" fill="#15151D" stroke="#272733"/>
    <rect x="32" y="344" width="52" height="52" rx="12" fill="#1D1D28"/>
    <text x="58" y="378" font-size="26" text-anchor="middle">🚀</text>
    <text x="100" y="360" fill="#F4F4F8" font-size="16" font-weight="700">Sci-Fi Sunday</text>
    <text x="100" y="379" fill="#9B9BAC" font-size="12">17 members · Bengaluru</text>
    <text x="100" y="397" fill="#62626F" font-size="12">One mind-bender every Sunday, IMAX when possible.</text>
    <rect x="312" y="356" width="50" height="28" rx="14" fill="#F6C453"/>
    <text x="337" y="375" fill="#1A1404" font-size="12" font-weight="800" text-anchor="middle">Join</text>
  </g>
  <g>
    <rect x="16" y="428" width="358" height="92" rx="18" fill="#15151D" stroke="#272733"/>
    <rect x="32" y="448" width="52" height="52" rx="12" fill="#1D1D28"/>
    <text x="58" y="482" font-size="26" text-anchor="middle">💘</text>
    <text x="100" y="464" fill="#F4F4F8" font-size="16" font-weight="700">Rom-Com Recovery Group</text>
    <text x="100" y="483" fill="#9B9BAC" font-size="12">35 members · Mumbai</text>
    <text x="100" y="501" fill="#62626F" font-size="12">Feelings, popcorn, repeat.</text>
    <rect x="312" y="460" width="50" height="28" rx="14" fill="#F6C453"/>
    <text x="337" y="479" fill="#1A1404" font-size="12" font-weight="800" text-anchor="middle">Join</text>
  </g>

  <!-- FAB -->
  <circle cx="334" cy="708" r="28" fill="#F6C453"/>
  <text x="334" y="718" fill="#1A1404" font-size="28" font-weight="700" text-anchor="middle">+</text>

  <!-- tab bar -->
  <rect x="0" y="764" width="390" height="80" fill="#0B0B10"/>
  <line x1="0" y1="764" x2="390" y2="764" stroke="#272733"/>
  <text x="39" y="794" font-size="19" text-anchor="middle" opacity="0.35">🎬</text>
  <text x="39" y="812" fill="#62626F" font-size="10" text-anchor="middle">Feed</text>
  <text x="117" y="794" font-size="19" text-anchor="middle" opacity="0.35">🧭</text>
  <text x="117" y="812" fill="#62626F" font-size="10" text-anchor="middle">Discover</text>
  <text x="195" y="794" fill="#F6C453" font-size="19" text-anchor="middle">👥</text>
  <text x="195" y="812" fill="#F6C453" font-size="10" font-weight="700" text-anchor="middle">Crews</text>
  <text x="273" y="794" font-size="19" text-anchor="middle" opacity="0.35">🎟️</text>
  <text x="273" y="812" fill="#62626F" font-size="10" text-anchor="middle">Screenings</text>
  <text x="351" y="794" font-size="19" text-anchor="middle" opacity="0.35">👤</text>
  <text x="351" y="812" fill="#62626F" font-size="10" text-anchor="middle">Profile</text>
</svg>
