<svg xmlns="http://www.w3.org/2000/svg" width="390" height="844" viewBox="0 0 390 844" font-family="-apple-system, 'Segoe UI', Helvetica, Arial, sans-serif">
  <defs>
    <linearGradient id="pp" x1="0" y1="0" x2="1" y2="1"><stop offset="0" stop-color="#46306b"/><stop offset="1" stop-color="#191228"/></linearGradient>
  </defs>
  <rect width="390" height="844" rx="48" fill="#0B0B10"/>
  <rect x="0.5" y="0.5" width="389" height="843" rx="47.5" fill="none" stroke="#272733"/>
  <rect x="135" y="16" width="120" height="30" rx="15" fill="#000"/>
  <text x="24" y="78" fill="#F6C453" font-size="16">‹ Back</text>
  <text x="195" y="79" fill="#F4F4F8" font-size="17" font-weight="800" text-anchor="middle">👻 Midnight Horror Club</text>
  <text x="24" y="112" fill="#9B9BAC" font-size="12">23 members · Hyderabad</text>
  <text x="24" y="132" fill="#9B9BAC" font-size="14">We watch what others won't…</text>

  <rect x="24" y="148" width="166" height="36" rx="12" fill="#1D1D28" stroke="#272733"/>
  <text x="107" y="171" fill="#F4F4F8" font-size="13" font-weight="700" text-anchor="middle">Leave crew</text>
  <rect x="200" y="148" width="166" height="36" rx="12" fill="#F6C453"/>
  <text x="283" y="171" fill="#1A1404" font-size="13" font-weight="700" text-anchor="middle">+ Watch party</text>

  <!-- tabs -->
  <text x="110" y="218" fill="#F6C453" font-size="13" font-weight="700" text-anchor="middle">Watch parties</text>
  <rect x="24" y="228" width="171" height="2" fill="#F6C453"/>
  <text x="283" y="218" fill="#62626F" font-size="13" font-weight="700" text-anchor="middle">Chat</text>

  <!-- party card -->
  <rect x="16" y="248" width="358" height="222" rx="18" fill="#15151D" stroke="#272733"/>
  <rect x="36" y="268" width="64" height="96" rx="8" fill="url(#pp)"/>
  <text x="116" y="288" fill="#F4F4F8" font-size="16" font-weight="700">The Shining (4K Restoration)</text>
  <text x="116" y="312" fill="#9B9BAC" font-size="12">📅  Sat, Jun 20 · 11:30 PM</text>
  <text x="116" y="334" fill="#9B9BAC" font-size="12">📍  Prasads Multiplex, Hyderabad</text>
  <text x="116" y="356" fill="#4FD8C4" font-size="12">👥  9 going</text>
  <text x="36" y="392" fill="#9B9BAC" font-size="13">Meet at the popcorn counter 15 min early.</text>
  <rect x="36" y="412" width="102" height="34" rx="17" fill="#F6C453"/>
  <text x="87" y="434" fill="#1A1404" font-size="12" font-weight="700" text-anchor="middle">I'm in</text>
  <rect x="146" y="412" width="102" height="34" rx="17" fill="none" stroke="#272733"/>
  <text x="197" y="434" fill="#9B9BAC" font-size="12" font-weight="700" text-anchor="middle">Maybe</text>
  <rect x="256" y="412" width="102" height="34" rx="17" fill="none" stroke="#272733"/>
  <text x="307" y="434" fill="#9B9BAC" font-size="12" font-weight="700" text-anchor="middle">Can't</text>

  <!-- chat preview bubbles -->
  <rect x="16" y="494" width="240" height="64" rx="18" fill="#15151D" stroke="#272733"/>
  <text x="32" y="518" fill="#F6C453" font-size="11" font-weight="800">Arjun R.</text>
  <text x="32" y="538" fill="#F4F4F8" font-size="14">Who's up for the midnight slot? 👀</text>
  <rect x="150" y="570" width="224" height="46" rx="18" fill="#F6C453"/>
  <text x="166" y="598" fill="#1A1404" font-size="14">Born ready. Booking row J.</text>

  <!-- composer -->
  <rect x="16" y="700" width="306" height="42" rx="21" fill="#15151D" stroke="#272733"/>
  <text x="36" y="726" fill="#62626F" font-size="14">Message the crew…</text>
  <circle cx="353" cy="721" r="21" fill="#F6C453"/>
  <text x="353" y="728" fill="#1A1404" font-size="16" font-weight="800" text-anchor="middle">↑</text>
</svg>
