<svg xmlns="http://www.w3.org/2000/svg" width="390" height="844" viewBox="0 0 390 844" font-family="-apple-system, 'Segoe UI', Helvetica, Arial, sans-serif">
  <defs>
    <linearGradient id="pr1" x1="0" y1="0" x2="1" y2="1"><stop offset="0" stop-color="#3d2f5c"/><stop offset="1" stop-color="#1a1430"/></linearGradient>
  </defs>
  <rect width="390" height="844" rx="48" fill="#0B0B10"/>
  <rect x="0.5" y="0.5" width="389" height="843" rx="47.5" fill="none" stroke="#272733"/>
  <rect x="135" y="16" width="120" height="30" rx="15" fill="#000"/>
  <text x="24" y="92" fill="#F4F4F8" font-size="28" font-weight="800">Profile</text>

  <!-- identity -->
  <circle cx="60" cy="158" r="36" fill="#F6C453"/>
  <text x="60" y="167" fill="#0B0B10" font-size="24" font-weight="800" text-anchor="middle">PK</text>
  <text x="112" y="148" fill="#F4F4F8" font-size="22" font-weight="700">Pauline K.</text>
  <text x="112" y="168" fill="#9B9BAC" font-size="13">Hyderabad</text>
  <text x="112" y="190" fill="#F6C453" font-size="13">★★★★☆  3.8 avg</text>

  <text x="24" y="232" fill="#9B9BAC" font-size="14">Will defend slow cinema with my life. 70mm or bust.</text>

  <!-- stats card -->
  <rect x="24" y="252" width="342" height="84" rx="18" fill="#15151D" stroke="#272733"/>
  <text x="81" y="292" fill="#F4F4F8" font-size="20" font-weight="800" text-anchor="middle">87</text>
  <text x="81" y="314" fill="#62626F" font-size="10" font-weight="700" text-anchor="middle" letter-spacing="1">REVIEWS</text>
  <text x="195" y="292" fill="#F4F4F8" font-size="20" font-weight="800" text-anchor="middle">214</text>
  <text x="195" y="314" fill="#62626F" font-size="10" font-weight="700" text-anchor="middle" letter-spacing="1">FOLLOWERS</text>
  <text x="309" y="292" fill="#F4F4F8" font-size="20" font-weight="800" text-anchor="middle">56</text>
  <text x="309" y="314" fill="#62626F" font-size="10" font-weight="700" text-anchor="middle" letter-spacing="1">FOLLOWING</text>

  <!-- taste chips -->
  <rect x="24" y="356" width="92" height="32" rx="16" fill="#15151D" stroke="#272733"/>
  <text x="70" y="377" fill="#9B9BAC" font-size="12" font-weight="600" text-anchor="middle">Drama · 31</text>
  <rect x="124" y="356" width="96" height="32" rx="16" fill="#15151D" stroke="#272733"/>
  <text x="172" y="377" fill="#9B9BAC" font-size="12" font-weight="600" text-anchor="middle">Thriller · 22</text>
  <rect x="228" y="356" width="88" height="32" rx="16" fill="#15151D" stroke="#272733"/>
  <text x="272" y="377" fill="#9B9BAC" font-size="12" font-weight="600" text-anchor="middle">Sci-Fi · 18</text>

  <!-- follow button -->
  <rect x="24" y="404" width="342" height="36" rx="12" fill="#F6C453"/>
  <text x="195" y="427" fill="#1A1404" font-size="13" font-weight="800" text-anchor="middle">Follow</text>

  <text x="24" y="478" fill="#F4F4F8" font-size="17" font-weight="700">Recent reviews</text>

  <!-- review card -->
  <rect x="16" y="494" width="358" height="200" rx="18" fill="#15151D" stroke="#272733"/>
  <circle cx="56" cy="532" r="19" fill="#F6C453"/>
  <text x="56" y="537" fill="#0B0B10" font-size="13" font-weight="800" text-anchor="middle">PK</text>
  <text x="86" y="528" fill="#F4F4F8" font-size="15" font-weight="700">Pauline K.</text>
  <text x="86" y="545" fill="#9B9BAC" font-size="12">3d · on Cinema</text>
  <text x="358" y="536" fill="#F6C453" font-size="14" text-anchor="end">★★★★★</text>
  <rect x="40" y="566" width="76" height="110" rx="8" fill="url(#pr1)"/>
  <text x="132" y="588" fill="#F4F4F8" font-size="16" font-weight="700">Stalker</text>
  <text x="132" y="607" fill="#9B9BAC" font-size="12">Drama · Sci-Fi · Mystery</text>
  <text x="132" y="632" fill="#9B9BAC" font-size="13" font-style="italic">“Tarkovsky films a puddle and it</text>
  <text x="132" y="650" fill="#9B9BAC" font-size="13" font-style="italic">means more than most trilogies.”</text>

  <!-- tab bar -->
  <rect x="0" y="764" width="390" height="80" fill="#0B0B10"/>
  <line x1="0" y1="764" x2="390" y2="764" stroke="#272733"/>
  <text x="39" y="794" font-size="19" text-anchor="middle" opacity="0.35">🎬</text>
  <text x="39" y="812" fill="#62626F" font-size="10" text-anchor="middle">Feed</text>
  <text x="117" y="794" font-size="19" text-anchor="middle" opacity="0.35">🧭</text>
  <text x="117" y="812" fill="#62626F" font-size="10" text-anchor="middle">Discover</text>
  <text x="195" y="794" font-size="19" text-anchor="middle" opacity="0.35">👥</text>
  <text x="195" y="812" fill="#62626F" font-size="10" text-anchor="middle">Crews</text>
  <text x="273" y="794" font-size="19" text-anchor="middle" opacity="0.35">🎟️</text>
  <text x="273" y="812" fill="#62626F" font-size="10" text-anchor="middle">Screenings</text>
  <text x="351" y="794" fill="#F6C453" font-size="19" text-anchor="middle">👤</text>
  <text x="351" y="812" fill="#F6C453" font-size="10" font-weight="700" text-anchor="middle">Profile</text>
</svg>
